<svg width="334" height="105" viewBox="0 0 334 105" fill="none" xmlns="http://www.w3.org/2000/svg">
<path d="M80.7932 81.3732C81.7191 81.3667 82.6358 81.557 83.4825 81.9315C84.2963 82.2935 85.0409 82.7941 85.6829 83.4109C86.3266 84.0382 86.8415 84.7849 87.1988 85.6092C87.5694 86.4685 87.7573 87.3952 87.7506 88.3308C87.7423 89.265 87.5464 90.188 87.1744 91.0451C86.8025 91.9022 86.262 92.676 85.5852 93.3205C76.2716 100.943 64.5838 105.073 52.5442 104.996C38.0052 104.996 25.6131 99.8781 15.3679 89.6428C5.12263 79.4076 0 67.0275 0 52.5027C0 38.0245 5.12263 25.6654 15.3679 15.4254C25.6131 5.1855 38.0052 0.0445976 52.5442 0.00272602C64.9875 0.00272602 76.2201 4.09451 86.2418 12.2781C86.8657 12.9036 87.3515 13.6528 87.6679 14.4774C87.9843 15.3019 88.1243 16.1835 88.0789 17.0654C88.0914 18.0101 87.9132 18.9476 87.555 19.8219C87.2116 20.6436 86.711 21.3903 86.0811 22.0202C85.4425 22.6576 84.6824 23.1607 83.8458 23.4997C82.5872 24.0173 81.2048 24.1562 79.8682 23.8996C78.5317 23.643 77.2993 23.0019 76.3225 22.0551C73.0198 19.4411 69.3006 17.4005 65.3205 16.0186C61.2114 14.602 56.891 13.8941 52.5442 13.925C47.4704 13.9186 42.4453 14.9122 37.7565 16.849C33.0677 18.7858 28.8074 21.6277 25.2198 25.2119C21.6321 28.7961 18.7874 33.0522 16.8487 37.7364C14.9101 42.4206 13.9155 47.4409 13.9219 52.5097C13.9219 63.2102 17.6661 72.3103 25.1544 79.81C31.9087 86.5166 40.8961 90.5074 50.4051 91.0221C59.9142 91.5369 69.2806 88.5397 76.7207 82.6014C77.926 81.7971 79.3437 81.3696 80.7932 81.3732Z" fill="white"/>
<path d="M170.912 68.2395C170.912 78.4747 167.321 87.1352 160.14 94.2208C152.871 101.395 144.2 104.982 134.127 104.982C129.254 105.049 124.416 104.148 119.895 102.331C115.373 100.515 111.258 97.8189 107.789 94.4001C104.319 90.9812 101.564 86.9078 99.6835 82.4162C97.803 77.9246 96.8347 73.1046 96.8347 68.236C96.8347 63.3674 97.803 58.5473 99.6835 54.0557C101.564 49.5642 104.319 45.4907 107.789 42.0719C111.258 38.653 115.373 35.9571 119.895 34.1405C124.416 32.324 129.254 31.4231 134.127 31.4902C144.2 31.4902 152.871 35.0772 160.14 42.2512C163.586 45.6297 166.32 49.6636 168.181 54.1148C169.986 58.6054 170.913 63.4001 170.912 68.2395ZM134.127 45.2101C131.005 45.1838 127.912 45.809 125.046 47.0455C119.546 49.4054 115.178 53.8064 112.863 59.3208C111.675 62.1456 111.063 65.1789 111.063 68.243C111.063 71.307 111.675 74.3403 112.863 77.1651C115.178 82.6795 119.546 87.0805 125.046 89.4404C127.903 90.6516 130.974 91.2758 134.078 91.2758C137.181 91.2758 140.253 90.6516 143.11 89.4404C145.846 88.259 148.331 86.5653 150.431 84.4508C152.518 82.3422 154.19 79.8615 155.362 77.1372C156.556 74.3248 157.171 71.3013 157.171 68.2464C157.171 65.1916 156.556 62.168 155.362 59.3557C154.192 56.6284 152.519 54.1452 150.431 52.0352C148.331 49.9206 145.846 48.2269 143.11 47.0455C140.275 45.8176 137.216 45.1925 134.127 45.2101Z" fill="white"/>
<path d="M218.203 31.5041C226.598 31.3955 234.763 34.2526 241.255 39.5714V6.82782C241.229 5.92447 241.388 5.02533 241.722 4.1855C242.056 3.34568 242.558 2.58286 243.198 1.94383C243.837 1.3048 244.601 0.803021 245.442 0.469243C246.282 0.135466 247.182 -0.0232786 248.087 0.00275419C248.99 -0.0151257 249.888 0.147251 250.727 0.480382C251.567 0.813513 252.331 1.3107 252.976 1.9428C253.632 2.57266 254.149 3.33271 254.493 4.17405C254.837 5.01538 255.001 5.91937 254.974 6.82782V68.2395C254.974 78.4748 251.384 87.1352 244.203 94.2208C236.938 101.395 228.269 104.982 218.196 104.982C213.323 105.049 208.485 104.148 203.964 102.331C199.443 100.515 195.328 97.8189 191.858 94.4001C188.388 90.9813 185.633 86.9078 183.753 82.4162C181.872 77.9247 180.904 73.1046 180.904 68.236C180.904 63.3674 181.872 58.5473 183.753 54.0558C185.633 49.5642 188.388 45.4907 191.858 42.0719C195.328 38.6531 199.443 35.9571 203.964 34.1405C208.485 32.324 213.323 31.4231 218.196 31.4902L218.203 31.5041ZM241.255 68.2534C241.284 65.1985 240.678 62.1709 239.474 59.3627C237.13 53.8375 232.744 49.4282 227.228 47.0525C224.371 45.8413 221.299 45.2171 218.196 45.2171C215.092 45.2171 212.021 45.8413 209.164 47.0525C203.662 49.4087 199.293 53.8109 196.981 59.3278C195.787 62.1511 195.172 65.185 195.172 68.25C195.172 71.3149 195.787 74.3488 196.981 77.1721C199.293 82.689 203.662 87.0912 209.164 89.4475C212.021 90.6586 215.092 91.2828 218.196 91.2828C221.299 91.2828 224.371 90.6586 227.228 89.4475C229.966 88.2645 232.453 86.571 234.556 84.4577C236.628 82.3456 238.286 79.8652 239.446 77.1442C240.66 74.3335 241.277 71.301 241.255 68.2395V68.2534Z" fill="white"/>
<path d="M327.105 104.996C326.198 105.029 325.293 104.87 324.451 104.531C323.609 104.192 322.847 103.68 322.216 103.028C320.959 101.75 320.252 100.032 320.246 98.2404C317.382 100.515 314.134 102.259 310.655 103.391C307.104 104.49 303.405 105.032 299.688 104.996C295.122 105.022 290.601 104.095 286.415 102.274C278.2 98.7461 271.652 92.2045 268.121 83.9971C266.298 79.8152 265.37 75.2989 265.396 70.7378V38.3292C265.382 37.4317 265.552 36.5407 265.895 35.7113C266.239 34.8819 266.749 34.1317 267.394 33.507C268.03 32.8583 268.792 32.3461 269.632 32.0018C270.473 31.6574 271.375 31.488 272.284 31.5041C274.095 31.5078 275.83 32.2281 277.111 33.5072C278.391 34.7864 279.112 36.5202 279.116 38.3292V70.7448C279.098 73.4946 279.644 76.219 280.722 78.7492C282.805 83.6765 286.729 87.5974 291.661 89.6777C294.189 90.737 296.902 91.2826 299.642 91.2826C302.383 91.2826 305.096 90.737 307.623 89.6777C312.581 87.5777 316.537 83.6482 318.667 78.7074C319.747 76.19 320.294 73.4766 320.274 70.7378V38.3292C320.26 37.4312 320.432 36.5401 320.776 35.7107C321.121 34.8813 321.632 34.1313 322.279 33.507C322.913 32.857 323.675 32.3439 324.516 31.9995C325.357 31.655 326.259 31.4864 327.168 31.5041C328.979 31.5078 330.715 32.2281 331.995 33.5072C333.275 34.7864 333.996 36.5202 334 38.3292V98.1707C334 99.0723 333.821 99.9649 333.474 100.797C333.127 101.629 332.618 102.384 331.977 103.019C331.336 103.654 330.575 104.155 329.739 104.494C328.903 104.834 328.008 105.004 327.105 104.996ZM312.82 11.7547L299.688 24.8116C299.065 25.4222 298.325 25.8997 297.512 26.2153C296.699 26.5308 295.83 26.6777 294.959 26.647C294.053 26.6771 293.151 26.5212 292.309 26.1889C291.466 25.8565 290.701 25.3549 290.061 24.715C289.42 24.0752 288.918 23.3107 288.585 22.469C288.253 21.6273 288.097 20.7264 288.127 19.8219C288.057 18.128 288.645 16.4726 289.768 15.2021L302.908 2.13817C303.545 1.48874 304.306 0.974181 305.146 0.625258C305.986 0.276335 306.888 0.100203 307.798 0.1074C308.708 0.0816122 309.613 0.246521 310.455 0.591481C311.297 0.93644 312.058 1.4538 312.688 2.11025C313.32 2.75437 313.817 3.51841 314.149 4.35736C314.482 5.19632 314.643 6.09324 314.623 6.99527C314.657 7.86883 314.516 8.74046 314.206 9.55815C313.896 10.3759 313.425 11.1229 312.82 11.7547Z" fill="white"/>
</svg>
