<svg version="1.1" id="Layer_1" x="0px" y="0px" viewBox="0 0 512 512">
<g>
	<path d="M443,150.1c-5.8-7.2-16.3-8.3-23.4-2.5c-7.2,5.8-8.3,16.3-2.5,23.4c8.6,10.7,16,20.9,22.5,31.2
		c16.6,26,16.6,71.5,0,97.5C391.5,375,322.8,418.2,251,418.2c-24.7,0-49.3-5.1-73.1-15.1c-8.5-3.6-18.3,0.4-21.8,8.9
		c-3.6,8.5,0.4,18.3,8.9,21.8c28,11.8,56.9,17.8,86.1,17.8c83.5,0,162.4-48.8,216.6-134c23.5-36.8,23.5-96.6,0-133.3
		C460.4,173,452.4,161.8,443,150.1z"/>
	<path d="M312.6,263.5c-4.5,24.5-24.8,44.8-49.3,49.3c-9.1,1.7-15,10.4-13.4,19.4c1.5,8,8.5,13.7,16.4,13.7
		c1,0,2-0.1,3-0.3c38.4-7.1,69-37.7,76.1-76.1c1.7-9.1-4.3-17.8-13.4-19.4C323,248.5,314.3,254.5,312.6,263.5z"/>
	<path d="M206.6,319L319,206.6c0,0,0,0,0,0L485.1,40.5c6.5-6.5,6.5-17.1,0-23.6c-6.5-6.5-17.1-6.5-23.6,0L384,94.5
		c-40.7-28.8-86.5-44-133-44c-83.5,0-162.4,48.8-216.6,134c-23.5,36.8-23.5,96.6,0,133.3c16.8,26.3,36.1,49.4,57.4,68.8l-74.9,74.9
		c-6.5,6.5-6.5,17.1,0,23.6c3.3,3.3,7.5,4.9,11.8,4.9c4.3,0,8.5-1.6,11.8-4.9L206.6,319C206.6,319,206.6,319,206.6,319z M196.3,282.1c-5.4-9.4-8.2-20-8.2-31.1c0-34.7,28.2-62.9,62.9-62.9c11.1,0,21.7,2.9,31.1,8.2L196.3,282.1z M62.5,299.8
		c-16.6-26-16.6-71.5,0-97.5C110.5,127,179.2,83.8,251,83.8c37.8,0,75.2,11.9,109,34.6l-53.8,53.8c-16.1-11.3-35.2-17.4-55.2-17.4
		c-53.1,0-96.3,43.2-96.3,96.3c0,20,6.1,39.2,17.4,55.2L115.4,363C95.8,345.4,78,324.2,62.5,299.8z"/>
</g>
</svg>
