<svg x="0px" y="0px" viewBox="0 0 512 512">
<g>
	<path d="M251.3,348c-53.2,0-96.5-43.3-96.5-96.5c0-53.2,43.3-96.5,96.5-96.5c53.2,0,96.5,43.3,96.5,96.5
		C347.7,304.7,304.5,348,251.3,348z M251.3,188.4c-34.8,0-63.1,28.3-63.1,63.1s28.3,63.1,63.1,63.1s63.1-28.3,63.1-63.1
		S286,188.4,251.3,188.4z"/>
</g>
<g>
	<path d="M251.3,452.5c-83.7,0-162.8-48.9-217.1-134.3c-23.5-36.8-23.5-96.8,0-133.6C88.5,99.2,167.6,50.3,251.3,50.3
		c83.7,0,162.8,48.9,217.1,134.3c23.5,36.8,23.5,96.8,0,133.6C414,403.5,334.9,452.5,251.3,452.5z M251.3,83.7
		c-72,0-140.8,43.3-188.9,118.8c-16.6,26-16.6,71.7,0,97.7c48,75.5,116.9,118.8,188.9,118.8s140.8-43.3,188.9-118.8
		c16.6-26,16.6-71.7,0-97.7C392.1,127,323.3,83.7,251.3,83.7z"/>
</g>
</svg>
