<svg viewBox="0 0 40 13" fill="currentColor" xmlns="http://www.w3.org/2000/svg">
    <path d="M9.67583 10.0748C9.78672 10.074 9.89651 10.0975 9.99791 10.1439C10.0954 10.1887 10.1845 10.2507 10.2614 10.3271C10.3385 10.4047 10.4002 10.4972 10.443 10.5992C10.4874 10.7056 10.5099 10.8204 10.5091 10.9362C10.5081 11.0519 10.4846 11.1661 10.4401 11.2723C10.3955 11.3784 10.3308 11.4742 10.2497 11.554C9.13432 12.4977 7.73458 13.009 6.29272 12.9995C4.55153 12.9995 3.06744 12.3659 1.84047 11.0986C0.613488 9.83141 0 8.29865 0 6.50034C0 4.70779 0.613488 3.17762 1.84047 1.90982C3.06744 0.642015 4.55153 0.00552161 6.29272 0.000337507C7.78294 0.000337507 9.12815 0.506939 10.3284 1.52014C10.4031 1.59759 10.4613 1.69035 10.4991 1.79243C10.537 1.89452 10.5538 2.00367 10.5484 2.11286C10.5499 2.22982 10.5285 2.34589 10.4856 2.45415C10.4445 2.55587 10.3845 2.64832 10.3091 2.72631C10.2326 2.80523 10.1416 2.86752 10.0414 2.90948C9.89069 2.97356 9.72512 2.99077 9.56506 2.959C9.405 2.92723 9.2574 2.84785 9.14042 2.73063C8.74488 2.40699 8.29947 2.15435 7.82281 1.98326C7.3307 1.80787 6.81329 1.72022 6.29272 1.72405C5.68508 1.72326 5.08326 1.84628 4.52173 2.08607C3.9602 2.32586 3.44999 2.67771 3.02033 3.12147C2.59067 3.56523 2.24999 4.09217 2.01781 4.67212C1.78564 5.25207 1.66652 5.87363 1.66729 6.5012C1.66729 7.82603 2.1157 8.9527 3.01251 9.88123C3.8214 10.7116 4.89774 11.2057 6.03654 11.2694C7.17535 11.3331 8.29708 10.9621 9.18811 10.2268C9.33246 10.1273 9.50224 10.0743 9.67583 10.0748Z" fill="currentColor"/>
    <path d="M20.4685 8.4487C20.4685 9.71592 20.0385 10.7882 19.1785 11.6654C18.3079 12.5536 17.2694 12.9977 16.0631 12.9977C15.4795 13.006 14.9001 12.8945 14.3587 12.6696C13.8172 12.4447 13.3243 12.1109 12.9088 11.6876C12.4933 11.2643 12.1633 10.76 11.9381 10.2039C11.7129 9.64781 11.597 9.05104 11.597 8.44826C11.597 7.84548 11.7129 7.24871 11.9381 6.69262C12.1633 6.13652 12.4933 5.63218 12.9088 5.2089C13.3243 4.78562 13.8172 4.45183 14.3587 4.22692C14.9001 4.00201 15.4795 3.89047 16.0631 3.89878C17.2694 3.89878 18.3079 4.34289 19.1785 5.2311C19.5912 5.64939 19.9186 6.14883 20.1414 6.69993C20.3576 7.25591 20.4686 7.84954 20.4685 8.4487ZM16.0631 5.59744C15.6892 5.59419 15.3188 5.67159 14.9755 5.82468C14.3169 6.11686 13.7938 6.66175 13.5165 7.34448C13.3742 7.69422 13.3009 8.06977 13.3009 8.44913C13.3009 8.82849 13.3742 9.20404 13.5165 9.55377C13.7938 10.2365 14.3169 10.7814 14.9755 11.0736C15.3177 11.2235 15.6855 11.3008 16.0572 11.3008C16.4289 11.3008 16.7968 11.2235 17.1389 11.0736C17.4666 10.9273 17.7642 10.7176 18.0156 10.4558C18.2656 10.1947 18.4659 9.88761 18.6063 9.55032C18.7492 9.20212 18.8229 8.82777 18.8229 8.44956C18.8229 8.07135 18.7492 7.697 18.6063 7.3488C18.4661 7.01114 18.2658 6.70369 18.0156 6.44245C17.7642 6.18065 17.4666 5.97095 17.1389 5.82468C16.7995 5.67265 16.4331 5.59526 16.0631 5.59744Z" fill="currentColor"/>
    <path d="M26.1321 3.90051C27.1375 3.88706 28.1153 4.2408 28.8928 4.89932V0.845349C28.8897 0.733506 28.9087 0.622184 28.9487 0.518205C28.9887 0.414227 29.0489 0.319782 29.1255 0.240664C29.2021 0.161546 29.2935 0.0994217 29.3942 0.0580968C29.4949 0.0167719 29.6027 -0.00288212 29.711 0.000340995C29.8191 -0.00187271 29.9267 0.018231 30.0272 0.0594758C30.1278 0.100721 30.2193 0.162277 30.2966 0.240538C30.3751 0.31852 30.437 0.412621 30.4782 0.516787C30.5194 0.620952 30.539 0.732874 30.5358 0.845349V8.4487C30.5358 9.71592 30.1058 10.7882 29.2458 11.6654C28.3758 12.5536 27.3376 12.9977 26.1313 12.9977C25.5477 13.0061 24.9683 12.8945 24.4268 12.6696C23.8853 12.4447 23.3925 12.1109 22.977 11.6876C22.5615 11.2643 22.2315 10.76 22.0063 10.2039C21.7811 9.64782 21.6651 9.05105 21.6651 8.44827C21.6651 7.84549 21.7811 7.24872 22.0063 6.69262C22.2315 6.13652 22.5615 5.63218 22.977 5.2089C23.3925 4.78562 23.8853 4.45183 24.4268 4.22692C24.9683 4.00202 25.5477 3.89048 26.1313 3.89879L26.1321 3.90051ZM28.8928 8.45043C28.8963 8.0722 28.8237 7.69735 28.6795 7.34967C28.3988 6.6656 27.8735 6.11968 27.2129 5.82554C26.8708 5.67559 26.5029 5.59831 26.1313 5.59831C25.7596 5.59831 25.3917 5.67559 25.0496 5.82554C24.3906 6.11727 23.8674 6.66231 23.5906 7.34535C23.4476 7.6949 23.3739 8.07052 23.3739 8.45C23.3739 8.82947 23.4476 9.20509 23.5906 9.55464C23.8674 10.2377 24.3906 10.7827 25.0496 11.0744C25.3917 11.2244 25.7596 11.3017 26.1313 11.3017C26.5029 11.3017 26.8708 11.2244 27.2129 11.0744C27.5408 10.928 27.8387 10.7183 28.0905 10.4567C28.3387 10.1952 28.5373 9.88807 28.6761 9.55118C28.8216 9.20319 28.8954 8.82774 28.8928 8.4487V8.45043Z" fill="currentColor"/>
    <path d="M39.1743 12.9995C39.0656 13.0035 38.9573 12.984 38.8564 12.942C38.7555 12.9 38.6643 12.8366 38.5887 12.7558C38.4382 12.5976 38.3536 12.3849 38.3528 12.1631C38.0098 12.4447 37.6208 12.6606 37.2042 12.8007C36.779 12.9369 36.3359 13.0039 35.8907 12.9995C35.344 13.0027 34.8026 12.888 34.3013 12.6625C33.3174 12.2257 32.5332 11.4158 32.1103 10.3996C31.892 9.88188 31.7808 9.32272 31.784 8.75801V4.74552C31.7823 4.6344 31.8026 4.52409 31.8437 4.4214C31.8849 4.31871 31.946 4.22583 32.0233 4.14848C32.0994 4.06818 32.1906 4.00476 32.2913 3.96212C32.392 3.91948 32.5 3.89852 32.6089 3.90051C32.8257 3.90097 33.0336 3.99014 33.1869 4.14851C33.3402 4.30688 33.4266 4.52155 33.427 4.74552V8.75888C33.4248 9.09934 33.4903 9.43664 33.6194 9.7499C33.8688 10.3599 34.3389 10.8454 34.9295 11.103C35.2322 11.2341 35.5571 11.3017 35.8853 11.3017C36.2135 11.3017 36.5384 11.2341 36.8411 11.103C37.4348 10.843 37.9086 10.3564 38.1637 9.74472C38.2931 9.43305 38.3586 9.0971 38.3561 8.75801V4.74552C38.3545 4.63434 38.375 4.52401 38.4163 4.42132C38.4576 4.31864 38.5188 4.22578 38.5962 4.14848C38.6722 4.06801 38.7634 4.00449 38.8642 3.96184C38.9649 3.91919 39.073 3.89831 39.1818 3.90051C39.3987 3.90097 39.6065 3.99014 39.7599 4.14851C39.9132 4.30688 39.9996 4.52155 40 4.74552V12.1545C40 12.2661 39.9786 12.3766 39.937 12.4796C39.8954 12.5827 39.8345 12.6762 39.7577 12.7547C39.6809 12.8333 39.5898 12.8954 39.4897 12.9374C39.3896 12.9794 39.2824 13.0005 39.1743 12.9995ZM37.4635 1.45534L35.8907 3.07192C35.8162 3.14751 35.7276 3.20663 35.6302 3.2457C35.5328 3.28477 35.4288 3.30295 35.3244 3.29915C35.216 3.30288 35.108 3.28358 35.0071 3.24243C34.9062 3.20129 34.8145 3.13918 34.7378 3.05996C34.6611 2.98073 34.601 2.88609 34.5611 2.78188C34.5213 2.67767 34.5026 2.56612 34.5062 2.45414C34.4978 2.24442 34.5682 2.03947 34.7028 1.88217L36.2764 0.264726C36.3526 0.18432 36.4438 0.120613 36.5444 0.0774128C36.645 0.0342128 36.753 0.0124061 36.862 0.0132971C36.971 0.0101044 37.0794 0.0305217 37.1802 0.0732309C37.2811 0.11594 37.3722 0.179994 37.4476 0.26127C37.5234 0.341017 37.5829 0.435612 37.6227 0.539483C37.6625 0.643354 37.6817 0.754401 37.6793 0.866081C37.6835 0.974236 37.6665 1.08215 37.6295 1.18339C37.5924 1.28463 37.5359 1.37712 37.4635 1.45534Z" fill="currentColor"/>
</svg>
