<svg viewBox="0 0 74 24" fill="currentColor" xmlns="http://www.w3.org/2000/svg">
    <path fill-rule="evenodd" clip-rule="evenodd" d="M29.8877 24C34.3012 24 37.8791 20.4183 37.8791 16C37.8791 11.5817 34.3012 8 29.8877 8C25.4742 8 21.8963 11.5817 21.8963 16C21.8963 20.4183 25.4742 24 29.8877 24ZM29.8877 21.12C32.7123 21.12 35.0022 18.8277 35.0022 16C35.0022 13.1723 32.7123 10.88 29.8877 10.88C27.063 10.88 24.7732 13.1723 24.7732 16C24.7732 18.8277 27.063 21.12 29.8877 21.12Z" fill="currentColor"/>
    <path d="M66.448 1.01824C67.0097 0.455884 67.9205 0.455884 68.4822 1.01824C69.044 1.58059 69.044 2.49235 68.4822 3.05471L65.5439 5.99627C64.9821 6.55862 64.0713 6.55862 63.5096 5.99627C62.9478 5.43391 62.9478 4.52216 63.5096 3.9598L66.448 1.01824Z" fill="black"/>
    <path fill-rule="evenodd" clip-rule="evenodd" d="M54.5011 5.62745e-06C53.7066 5.62745e-06 53.0626 0.644715 53.0626 1.44V9.85274C51.6768 8.69596 49.8937 8 47.9482 8C43.5347 8 39.9568 11.5817 39.9568 16C39.9568 20.4183 43.5347 24 47.9482 24C52.3617 24 55.9395 20.4183 55.9395 16V1.44C55.9395 0.644715 55.2955 5.62745e-06 54.5011 5.62745e-06ZM53.0626 16C53.0626 13.1723 50.7728 10.88 47.9482 10.88C45.1235 10.88 42.8337 13.1723 42.8337 16C42.8337 18.8277 45.1235 21.12 47.9482 21.12C50.7728 21.12 53.0626 18.8277 53.0626 16Z" fill="black"/>
    <path d="M19.4127 19.5002C19.972 20.0651 19.9726 20.9848 19.3454 21.473C17.8683 22.6229 16.1369 23.4149 14.2874 23.777C11.9655 24.2315 9.56117 23.988 7.37723 23.0772C5.19329 22.1663 3.32742 20.6289 2.01464 18.6585C0.701863 16.6881 0.00088573 14.3729 8.38829e-07 12.0045C-0.000884053 9.63604 0.698363 7.3203 2.00967 5.34894C3.32097 3.37757 5.18569 1.83875 7.36895 0.926291C9.55222 0.013833 11.9564 -0.231453 14.2786 0.221328C16.1284 0.581987 17.8603 1.37271 19.3384 2.52153C19.9659 3.00925 19.966 3.92896 19.4071 4.49423C18.8483 5.0595 17.9429 5.05321 17.2974 4.58964C16.237 3.82808 15.0206 3.30011 13.7286 3.04821C11.9637 2.7041 10.1366 2.89051 8.4773 3.58398C6.81802 4.27745 5.40083 5.44695 4.40424 6.94519C3.40765 8.44343 2.87622 10.2034 2.87689 12.0034C2.87756 13.8034 3.41031 15.563 4.40802 17.0605C5.40573 18.558 6.82379 19.7264 8.48359 20.4186C10.1434 21.1109 11.9707 21.2959 13.7353 20.9505C15.0271 20.6976 16.2431 20.1687 17.3029 19.4064C17.9481 18.9423 18.8535 18.9354 19.4127 19.5002Z" fill="black"/>
    <path d="M58.0173 9.44C58.0173 8.64471 58.6613 8 59.4557 8C60.2502 8 60.8942 8.64471 60.8942 9.44V16C60.8942 18.8277 63.184 21.12 66.0086 21.12C68.8333 21.12 71.1231 18.8277 71.1231 16V9.44C71.1231 8.64471 71.7671 8 72.5616 8C73.356 8 74 8.64471 74 9.44V22.56C74 23.3553 73.356 24 72.5616 24C71.7671 24 71.1231 23.3553 71.1231 22.56V22.147C70.5053 22.6622 69.8122 23.0819 69.0668 23.391C68.0972 23.7931 67.0581 24 66.0086 24C64.9592 24 63.92 23.7931 62.9505 23.391C61.9809 22.989 61.1 22.3997 60.3579 21.6568C59.6158 20.914 59.0272 20.0321 58.6256 19.0615C58.224 18.0909 58.0173 17.0506 58.0173 16V9.44Z" fill="black"/>
</svg>

