<svg width="180" height="180" viewBox="0 0 180 180" fill="none" xmlns="http://www.w3.org/2000/svg">
<path fill-rule="evenodd" clip-rule="evenodd" d="M46.8413 30.3916C46.2626 30.805 45.6013 31.301 45.0226 31.7143C39.0702 36.2613 34.1098 41.5523 29.9762 47.3394C18.3195 63.7084 13.9379 84.0457 17.4928 103.556C19.3942 114.138 23.6932 124.39 30.3896 133.732C37.4994 143.57 46.5933 151.093 56.762 156.301C72.387 164.238 90.4922 166.387 107.605 162.253C109.093 161.923 110.499 161.509 111.987 161.096C119.593 158.781 126.951 155.144 133.73 150.266C164.814 127.697 173.247 85.4512 154.15 52.9611C153.24 51.3076 152.165 49.7368 151.091 48.2488C150.843 47.8354 150.512 47.422 150.181 47.0087C146.957 42.5444 143.237 38.4935 139.269 34.9386C136.788 32.7064 134.143 30.7223 131.415 28.9035C117.857 19.8096 101.653 15.5933 85.6145 16.5854C72.139 17.3294 58.6634 21.8764 46.8413 30.3916Z" fill="url(#paint0_radial_57_59)"/>
<path opacity="0.2" fill-rule="evenodd" clip-rule="evenodd" d="M85.6139 16.5024C85.7792 16.5851 86.0272 16.5851 86.1926 16.6678C87.1847 16.9985 88.2594 17.4118 89.1688 17.9079C89.9128 18.3212 90.4915 19.0653 91.1529 19.4786C92.3103 20.3054 93.6331 20.8841 95.0385 21.3801C96.6919 22.0415 98.0147 22.9509 99.5855 23.6122C103.802 25.3483 108.597 24.6043 112.978 24.5216C114.053 24.5216 114.714 24.5216 115.789 24.3563C116.533 24.2736 117.112 24.3563 117.773 24.5216C119.261 24.7696 120.915 25.2657 121.99 26.4231C122.651 27.0845 122.651 28.0765 122.899 28.9859C123.23 30.226 123.312 30.722 121.99 30.8047C119.757 30.97 117.029 30.6394 116.285 33.4502C115.789 35.269 115.21 36.9224 115.045 38.7412C114.797 40.808 113.888 43.1228 114.797 45.107C115.458 46.5951 117.277 47.1738 118.6 48.0005C119.757 48.7445 121.08 49.4059 121.99 50.4806C122.734 51.3074 122.899 52.2994 123.395 53.2088C124.139 54.6969 125.462 55.937 127.198 55.689C127.859 55.6063 127.859 55.3583 128.603 55.5236C129.265 55.7716 129.926 56.433 130.422 56.8464C131.91 58.1691 132.985 59.9879 134.473 61.228C135.465 62.0547 136.705 62.7988 137.863 63.5428C138.607 64.0388 139.185 64.7829 139.929 65.1136C140.343 65.2789 140.921 65.3616 141.417 65.5269C142.823 66.023 143.567 66.519 144.476 67.7591C146.212 70.2393 147.783 73.9595 148.197 76.9357C148.527 78.9198 147.701 79.4985 146.047 79.9945C144.642 80.4079 142.41 80.4906 141.417 81.648C140.508 82.6401 140.343 84.0455 139.599 85.1202C138.855 86.1949 138.193 87.187 136.953 87.435C134.721 87.9311 132.324 87.3523 130.174 87.5177C127.694 87.7657 124.304 89.4192 124.387 92.23C124.387 93.6354 123.891 94.7928 123.395 96.1156C123.064 97.025 122.403 98.0997 123.312 98.9264C123.891 99.4225 125.048 99.3398 125.71 99.8358C126.454 100.332 126.619 101.159 126.619 101.985C126.702 103.308 127.033 104.879 126.785 106.119C126.289 108.434 123.23 110.501 121.08 110.914C118.435 111.41 115.789 112.071 113.309 110.666C111.738 109.839 110.581 108.186 108.514 108.516C107.274 108.682 106.53 109.508 105.455 109.922C104.38 110.418 103.306 110.583 102.314 111.162C101.322 111.741 100.412 112.237 99.3374 112.567C97.8493 113.063 96.3612 113.807 94.7905 114.138C92.9717 114.551 91.2356 114.138 89.4168 114.221C87.846 114.221 86.6059 113.642 85.0352 113.477C83.2991 113.311 81.563 112.65 79.8268 112.981C78.5041 113.229 77.264 113.559 75.9413 113.725C72.221 114.138 72.0557 110.17 71.8903 107.442C71.8077 105.54 71.725 103.804 72.1383 101.903C72.469 100.415 72.7997 98.9264 72.8824 97.4383C72.8824 95.9502 72.9651 94.3795 72.7171 92.9741C72.6344 92.3953 72.3864 91.8166 72.5517 91.2379C72.717 90.3285 73.3784 89.5018 74.2051 88.9231C75.9413 87.6004 77.9254 85.6162 79.9922 84.7895C82.1417 83.8801 83.4644 86.1123 84.6218 87.5177C85.2832 88.3444 86.1926 89.3365 87.2673 89.1711C88.2594 89.0058 89.0034 88.2617 90.1609 88.2617C91.4009 88.1791 92.2276 88.7578 92.7237 89.9152C92.9717 90.4112 92.9717 90.8246 93.2197 91.3206C93.4677 91.8166 93.9638 91.982 93.8811 92.5607C93.7157 93.8008 91.8143 93.3047 90.9049 93.3047C89.2515 93.2221 89.0034 93.3047 88.2594 94.7928C87.846 95.6196 87.1847 97.025 88.2594 97.6037C89.0034 98.0171 90.6569 97.521 91.4836 97.521C94.8732 97.6864 98.2627 97.8517 99.5028 94.0488C99.9161 92.8087 99.4201 92.3127 99.4201 91.2379C99.4201 90.0805 100.247 88.9231 100.164 87.6831C100.081 86.0296 98.428 84.6242 97.5187 83.3014C96.4439 81.8133 95.0385 80.1599 93.6331 78.9198C92.641 78.0104 91.8143 77.6797 90.6569 77.1837C89.4995 76.6877 89.1688 75.4476 88.2594 74.6209C86.6059 73.1328 84.7872 73.2981 82.7204 73.1328C80.7362 72.8848 79.4962 73.4635 77.5947 74.2075C73.7918 75.7783 69.9062 77.5971 66.5993 79.9945C63.7058 82.144 60.895 84.4588 57.6707 85.8643C56.1 86.5256 54.5292 87.0217 52.8758 87.435C52.3797 87.5177 52.3797 87.2697 51.8837 87.7657C51.6357 88.0964 50.9743 89.2538 50.8916 89.6672C50.561 90.7419 50.7263 92.3127 50.561 93.4701C50.3956 94.6275 50.6436 95.6196 50.6436 96.777C50.7263 98.4304 50.809 99.9185 50.9743 101.489C51.1397 104.052 48.7422 105.788 48.4115 108.351C47.9154 112.071 49.4035 114.882 50.3956 118.354C51.1397 121.165 52.1317 123.811 52.6278 126.622C52.8758 128.358 52.7931 130.011 53.2065 131.83C53.7852 134.062 54.8599 136.046 55.6866 138.196C56.348 139.849 57.2574 141.503 58.4148 142.825C59.2415 143.735 59.9856 144.148 60.7296 145.223C62.0524 147.042 63.2924 148.86 64.6152 150.596C65.3592 151.506 66.3513 152.002 67.3434 152.663C68.3354 153.325 69.4102 153.903 70.4022 154.565C73.0477 156.301 75.9413 159.36 79.3308 159.442C80.3229 159.442 81.3149 159.277 82.307 159.277C83.1337 159.36 83.7951 159.773 84.5391 159.938C85.2005 160.104 85.7792 160.186 86.3579 160.434C87.35 160.848 88.094 160.848 89.1688 161.013C89.9955 161.096 90.9049 161.426 91.6489 161.757C92.0623 161.923 92.641 162.419 93.0544 162.501C93.6331 162.584 93.7157 162.253 94.1291 162.005C94.6251 161.757 95.2038 161.674 95.7825 161.426C97.2706 160.765 99.3374 160.352 100.991 161.096C101.9 161.509 102.314 161.923 103.306 162.088C105.124 162.501 106.034 162.501 107.853 161.923C107.853 162.005 107.77 162.005 107.77 162.088C90.6569 166.221 72.5517 164.072 56.9267 156.135C56.7613 155.557 56.6787 155.061 56.596 154.482C56.2653 152.829 55.4386 151.754 54.5292 150.431C53.2891 148.695 52.2144 146.876 51.2223 144.892C50.3956 143.156 49.3209 141.668 48.1635 140.097C46.758 138.196 45.8486 135.963 44.3606 134.062C42.9551 132.243 41.219 130.921 39.4829 129.432C37.0027 127.283 35.7627 123.976 34.4399 121.083C33.8612 119.76 33.6959 118.189 33.0345 116.949C32.6211 116.205 32.1251 115.544 31.7117 114.717C30.8023 112.815 29.3142 110.418 27.8261 108.847C26.8341 107.772 25.5113 108.02 24.2713 107.524C22.9485 107.028 22.5351 105.458 21.7084 104.548C20.7164 103.473 18.9802 103.225 17.5748 103.556C14.0199 84.0455 18.4842 63.7082 30.0583 47.3391C31.2984 48.9925 31.7117 52.4648 32.4558 53.3742C32.9518 53.9529 33.6132 54.2009 34.1092 54.7796C34.5226 55.3583 34.6879 56.0197 35.0186 56.681C35.432 57.6731 36.0933 58.9132 37.2508 58.7478C38.4082 58.5825 39.4002 56.681 40.475 57.7558C41.0537 58.3345 40.971 59.2439 41.6324 59.9053C42.2111 60.4013 42.6244 60.8146 43.0378 61.476C43.7818 62.5508 44.1952 63.5428 44.7739 64.7002C45.1046 65.2789 45.518 65.5269 46.014 65.9403C46.3447 66.271 46.9234 67.0977 47.3367 67.2631C48.7422 67.9244 49.2382 66.1056 49.5689 65.1963C49.7342 64.7002 49.8996 64.0388 50.1476 63.5428C50.4783 62.9641 50.7263 62.9641 51.1397 62.4681C52.2144 61.3933 52.4624 59.9052 52.5451 58.4172C52.7104 56.2677 52.9584 54.0355 53.7025 52.0514C54.0332 51.142 54.1158 50.4806 54.7772 49.8193C55.2733 49.3232 55.7693 48.8272 56.1827 48.2485C56.7614 47.5871 57.1747 47.0084 57.6707 46.2644C58.3321 45.355 59.2415 44.6109 59.9029 43.7015C60.4816 42.9575 61.391 40.9734 61.3083 39.9813C61.2256 39.4853 60.895 39.1546 60.895 38.5759C60.895 38.0798 61.2256 37.7492 61.0603 37.2531C60.7296 36.0957 58.7455 34.9383 57.8361 34.2769C56.4307 33.3675 54.5292 32.6235 52.9584 32.2928C51.1397 31.9621 49.6516 32.1275 47.8328 32.1275C47.1714 32.1275 45.9313 31.9621 45.1046 31.5487C45.6833 31.1354 46.262 30.6394 46.9234 30.226C58.6628 21.8761 72.1383 17.3292 85.6139 16.5024ZM80.2402 67.5111C79.9095 67.9244 80.3229 68.9165 80.6536 69.2472C81.3149 69.9086 82.6377 69.9086 83.5471 70.1566C84.5391 70.4046 85.4485 70.3219 86.3579 69.9086L85.5312 69.6605C86.6886 69.6605 88.094 69.9912 88.6727 68.5858C89.0034 67.7591 88.5901 67.1804 87.9287 66.8497C86.854 66.1883 85.6139 65.4443 84.2911 65.4443C83.3817 65.3616 82.7204 65.9403 82.059 66.4363C81.563 66.6017 80.6536 67.015 80.2402 67.5111ZM105.042 30.226C104.628 31.0527 104.711 32.1275 104.876 32.9542C105.042 33.6155 105.538 34.6076 105.869 35.1863C106.778 36.5091 108.679 36.9224 110.085 37.3358C110.912 37.5838 112.978 37.8318 111.242 36.5091C111.904 36.3437 112.4 36.2611 112.896 35.9304C113.226 35.6823 113.557 35.269 113.805 34.9383C114.466 34.1943 114.714 33.2849 115.293 32.4581C115.706 31.8794 116.285 31.1354 116.864 30.6394C117.36 30.226 117.939 30.0607 118.021 29.2339C118.021 28.7379 117.856 28.4899 117.443 28.3245C117.029 28.1592 116.285 28.2419 115.789 28.2419C115.21 28.1592 114.714 28.1592 114.136 28.1592C112.565 28.0765 110.994 28.5726 109.423 28.6552C108.514 28.6552 107.853 28.5726 106.943 28.8206C106.199 29.0686 105.455 29.4819 105.042 30.226ZM58.7455 28.9032C58.1668 30.3087 58.9935 32.1275 59.6549 33.3675C60.6469 35.1863 62.5484 36.8398 64.1192 38.1625C64.7805 38.7412 65.3592 39.0719 66.186 39.3199C67.0127 39.5679 67.8394 40.1466 67.0127 39.2372C68.1701 38.8239 69.1622 38.4105 70.3196 37.9145C71.6423 37.3358 73.1304 37.0051 74.5358 36.5091C76.8507 35.6823 79.6615 34.773 81.3149 32.7888C82.3897 31.4661 83.051 29.4819 82.4723 27.8285C82.059 26.7538 81.2323 25.5137 80.3229 24.8523C79.0828 23.9429 77.5947 23.6122 76.1893 23.1989C74.7839 22.8682 73.2131 22.7855 71.8903 23.2815C70.8983 23.6122 69.9889 24.1909 68.9968 24.439C68.5008 24.6043 68.0047 24.687 67.5087 24.8523C66.8473 25.1003 66.2686 25.0177 65.6073 25.0177C64.6152 25.0177 63.8711 25.0177 63.0444 25.5137C62.3004 26.0097 61.5563 26.5884 60.8123 27.1671C59.9029 27.6632 59.1588 28.0765 58.7455 28.9032Z" fill="white" fill-opacity="0.11"/>
<path opacity="0.2" fill-rule="evenodd" clip-rule="evenodd" d="M128.852 107.111C128.522 107.773 127.612 109.095 127.778 109.922C127.943 110.831 129.348 111.162 130.01 111.493C130.589 111.741 131.25 111.906 131.746 112.319C132.159 112.65 132.49 113.064 132.986 113.312C133.317 113.477 133.978 113.808 134.391 113.89C134.805 113.973 135.218 113.725 135.632 113.642C136.706 113.312 137.698 112.65 138.773 112.237C139.434 111.989 139.765 111.493 140.179 110.997C140.757 110.253 141.336 109.591 141.915 108.847C142.659 107.773 143.568 106.698 144.064 105.458C144.56 104.3 144.477 103.391 144.229 102.151C144.147 101.655 143.899 101.241 143.733 100.745C143.568 100.167 143.568 99.5053 143.237 98.9266C143.072 98.5959 142.907 98.2652 142.659 98.0172C142.328 97.6865 142.08 97.6865 141.667 97.5212C141.088 97.2732 140.923 97.1078 140.261 97.0251C139.765 97.0251 139.269 97.1078 138.856 97.1905C137.946 97.5212 136.954 97.6865 136.045 98.0999C134.888 98.5959 134.061 99.1746 133.317 100.332C132.655 101.324 131.911 102.151 131.167 102.978C130.506 103.722 129.597 104.631 129.266 105.623C129.018 106.284 129.018 106.946 128.852 107.111Z" fill="white" fill-opacity="0.11"/>
<path opacity="0.3" fill-rule="evenodd" clip-rule="evenodd" d="M128.191 115.461C128.108 115.957 127.943 116.371 127.695 116.701C127.116 116.371 126.206 117.115 125.545 116.536C125.71 115.957 125.545 114.8 126.455 114.717C126.62 114.717 126.785 114.882 126.951 114.882C127.116 114.882 127.364 114.8 127.529 114.882C127.86 115.048 128.356 115.957 128.604 116.288L128.191 115.461Z" fill="url(#paint1_linear_57_59)"/>
<path opacity="0.2" fill-rule="evenodd" clip-rule="evenodd" d="M114.384 106.45C113.639 106.533 113.309 106.615 112.647 106.45C112.151 106.367 111.573 106.119 110.994 106.037C110.085 105.789 108.927 105.293 107.935 105.293C106.943 105.21 106.612 105.789 105.868 106.202C105.455 106.45 104.876 106.615 104.463 106.863C104.215 107.029 103.967 107.029 103.719 107.194C103.388 107.359 103.223 107.607 102.892 107.773C102.231 108.021 101.487 107.938 100.825 108.186C100.329 108.434 99.8333 108.682 99.2546 108.682C98.7585 108.682 98.4279 108.434 98.0145 108.269C97.5185 108.103 96.9398 108.103 96.4437 108.103C94.5423 108.103 92.9715 109.095 91.2354 109.261C89.5819 109.426 88.5072 107.277 87.5151 106.285C87.3498 106.119 87.1018 106.037 86.9364 105.871C86.7711 105.623 86.8538 105.293 86.7711 105.044C86.6058 104.548 86.4404 104.218 86.1097 103.887C85.9444 103.722 85.8617 103.97 85.6964 103.556C85.6137 103.308 85.779 102.812 85.8617 102.647C86.1097 101.986 86.6884 101.655 87.3498 101.407C88.0112 101.159 88.7552 100.911 89.4166 100.663C90.078 100.415 90.7394 100.332 91.3181 100.084C91.8968 99.7535 92.3928 99.2575 92.9715 99.0094C94.4596 98.2654 95.617 98.5961 97.1878 98.8441C98.5932 99.0921 100.247 99.9188 101.569 98.8441C102.065 98.4307 101.9 98.1827 102.148 97.604C102.313 97.0253 102.809 96.4466 102.892 95.7852C102.892 95.5372 102.644 94.8758 102.561 94.6278C102.396 94.1318 102.148 93.5531 102.065 92.9744C101.983 92.313 102.313 92.065 102.479 91.569C102.561 91.2383 102.396 91.3209 102.396 90.9902C102.313 90.5769 102.396 90.4942 102.479 89.9982C102.644 89.3368 102.727 88.6754 103.14 88.0967C103.471 87.6007 103.719 87.1873 103.802 86.526C103.884 85.8646 103.967 85.0379 104.05 84.2938C104.05 83.5498 103.884 82.723 103.554 82.0617C103.388 81.731 103.14 81.483 102.892 81.1523C102.231 80.2429 102.148 79.0855 101.9 78.0934C101.569 76.6053 101.652 73.7945 99.5853 73.6291C98.9239 73.5465 98.4278 73.9598 97.7665 73.7945C96.4437 73.3811 96.1957 71.893 95.9477 70.7356C95.4517 68.7515 95.617 66.7673 95.865 64.7832C96.0304 63.5431 96.113 62.4684 97.1878 61.559C99.2546 59.9056 101.9 60.6496 104.132 59.4095C106.282 58.2521 107.687 55.9373 109.423 54.2012C110.25 53.3745 111.655 52.4651 112.895 52.4651C113.309 52.4651 113.888 52.5478 114.301 52.7131C115.293 53.0438 115.376 53.7052 115.954 54.2839C116.368 54.6972 116.698 54.6972 117.277 54.8626C118.682 55.1933 119.509 57.1774 120.336 58.2521C121.493 59.8229 122.981 61.3937 124.718 62.2204C126.867 63.2125 128.934 64.1218 131.166 64.7832C132.737 65.2792 134.473 65.858 136.044 66.602C137.118 67.1807 137.945 68.0901 138.689 68.9995C139.764 70.3222 140.26 71.8103 139.847 73.4638C139.433 75.0345 138.524 75.0345 137.201 75.4479C136.788 75.6133 135.796 75.7786 135.548 76.3573C135.217 77.1013 136.126 78.0934 136.54 78.6721C136.87 79.1681 137.862 80.0775 137.449 80.7389C137.201 81.235 136.044 81.8137 135.548 82.1443C135.052 82.475 134.638 82.9711 134.059 82.8884C133.646 82.8057 133.315 82.475 132.902 82.3097C132.241 81.979 131.662 82.227 130.918 82.227C130.422 82.227 129.926 82.0617 129.43 81.8963C128.768 81.731 128.024 81.8137 127.446 81.5656C126.454 81.0696 126.123 80.1602 124.883 79.9122C124.47 79.8295 123.973 79.9122 123.643 79.7469C123.312 79.5815 123.064 79.3335 122.816 79.1681C122.155 78.6721 121.08 78.0934 120.253 78.5894C119.427 79.0855 119.675 80.4909 119.923 81.2349C120.171 81.8963 120.749 82.723 120.253 83.3844C119.84 83.8805 119.096 83.9631 118.848 84.6245C118.021 86.8566 120.915 88.0967 121.907 89.6675C123.477 91.9823 122.485 94.5451 121.659 96.9426C121.576 97.1906 121.576 97.4387 121.493 97.604C121.328 98.0174 121.163 98.0174 120.915 98.3481C120.667 98.7614 120.749 99.3401 120.832 99.8362C120.915 100.498 120.997 100.911 121.328 101.49C121.741 102.068 122.32 102.647 122.651 103.308C123.312 104.548 122.32 105.954 121.08 106.367C120.253 106.615 119.179 106.202 118.352 106.367C117.69 106.45 117.029 106.615 116.368 106.615C115.954 106.615 115.541 106.45 115.21 106.367C114.466 106.533 113.888 106.698 114.384 106.45Z" fill="white" fill-opacity="0.11"/>
<path opacity="0.2" fill-rule="evenodd" clip-rule="evenodd" d="M76.8505 68.834C76.2717 69.4127 75.9411 69.8261 75.3624 70.1568C74.8663 70.4874 74.2876 70.6528 73.7916 71.0662C72.4688 71.9755 71.3114 73.2156 69.9887 74.125C69.2446 74.7037 68.4179 74.9517 67.5912 75.3651C66.5165 75.9438 65.7724 76.9359 64.863 77.5972C63.5403 78.5893 62.1348 79.4987 60.3987 79.4987C59.7374 79.4987 59.2413 79.3334 58.7453 78.7547C58.3319 78.2586 58.3319 77.5972 57.9186 77.1012C57.5879 76.6879 57.0918 76.6052 56.5958 76.3572C56.0171 76.0265 55.4384 75.6131 54.777 75.2824C54.1983 74.9517 53.8676 74.8691 53.2063 74.7037C52.6276 74.621 52.1315 74.2077 51.5528 74.4557C50.9741 74.7037 51.0568 75.4478 50.8914 76.0265C50.5608 77.1839 50.3127 78.176 50.5608 79.3334C50.7261 80.0774 50.8914 80.3254 51.4701 80.7388C52.0488 81.1521 52.5449 81.4828 52.6276 82.2269C52.7102 83.2189 52.5449 84.2937 52.1315 85.2031C52.0489 85.2857 51.8008 85.6991 51.7182 85.7818C51.3875 86.1125 51.6355 85.8644 51.2221 85.9471C50.8088 85.9471 50.3954 85.9471 49.982 86.1951C49.4033 86.6085 48.8246 87.5179 48.494 88.1793C48.2459 88.5926 48.0806 89.1713 48.0806 89.6674C48.0806 90.2461 47.8326 90.7421 47.9152 91.4035C47.9979 92.5609 47.6672 93.6356 47.8326 94.8757C48.0806 96.2811 47.9979 97.6865 47.9979 99.1746C47.9153 102.151 48.4113 104.962 47.0885 107.855C46.7578 108.517 45.8484 109.674 45.0217 109.757C44.691 109.757 44.2777 109.591 43.8643 109.509C43.2029 109.426 42.7069 109.674 42.1282 109.839C41.4668 110.005 40.4748 110.335 39.7307 110.087C39.0693 109.922 38.2426 109.178 37.8293 108.599C37.5812 108.269 37.3332 107.938 37.0852 107.607C36.8372 107.359 36.5892 107.277 36.4238 107.028C35.6798 106.036 35.1011 105.21 33.861 104.714C33.4476 104.548 33.0343 104.466 32.5383 104.466C32.0422 104.466 31.3808 104.631 30.8848 104.548C29.8101 104.383 29.4794 102.647 29.2314 101.82C28.9007 100.663 28.7353 99.1746 27.826 98.3479C27.2472 97.8519 26.5032 97.6865 25.8418 97.2732C24.9324 96.6945 24.2711 96.1984 23.279 95.8678C22.8656 95.7024 22.6176 95.6197 22.2869 95.2891C21.3775 94.1316 21.2122 92.5609 21.0468 91.1555C20.8815 89.502 20.8815 87.8486 20.7162 86.1951C20.4681 84.3763 20.5508 83.0536 20.7988 81.2348C21.0468 79.664 20.8815 78.0933 20.8815 76.4398C20.8815 75.1998 20.9642 73.9597 21.0468 72.8023C21.1295 71.5622 21.4602 70.3221 21.7082 69.082C21.8736 68.09 21.9562 67.1806 22.2869 66.2712C22.7003 65.2791 23.1963 64.2044 23.4443 63.1296C23.775 61.9722 24.1057 60.9802 24.6017 59.9054C25.0978 58.9134 26.0898 57.1773 27.4953 57.8386C28.4873 58.3347 29.1487 59.6574 29.8101 60.5668C30.8021 61.9722 32.4556 62.3029 34.109 62.4683C35.4318 62.5509 36.7545 62.4683 38.0773 62.7163C38.7387 62.799 39.648 62.799 40.2268 63.2123C40.6401 63.543 40.9708 64.1217 41.2188 64.6177C41.7148 65.6925 42.3762 66.6845 43.2856 67.5113C44.1123 68.2553 45.1871 69.2474 46.2618 69.4127C46.9232 69.4954 47.7499 69.4127 48.4113 69.4954C49.486 69.4954 50.5608 68.5033 51.0568 67.5939C52.2142 65.8578 53.8676 64.4524 54.9424 62.6336C55.6037 61.4762 54.3637 60.4015 54.281 59.1614C54.1983 58.252 54.529 57.5079 54.6944 56.5986C54.8597 55.8545 54.6944 54.9451 54.6944 54.2011C54.6944 51.5556 56.5131 49.8195 59.2413 50.0675C60.8121 50.2328 62.0522 51.1422 62.6309 52.6303C62.8789 53.2917 63.1269 53.9531 63.2922 54.6144C63.3749 55.5238 63.3749 56.3505 63.7883 57.1773C65.4417 60.4015 68.7486 61.6415 71.8075 62.9643C73.2129 63.6257 74.701 64.4524 75.7757 65.6098C76.3544 66.1885 76.6024 66.3538 76.6851 67.2632C76.7678 67.9246 76.9331 68.338 77.0985 68.9167C77.1811 69.5781 77.0158 70.2394 76.8505 68.834Z" fill="white" fill-opacity="0.11"/>
<path fill-rule="evenodd" clip-rule="evenodd" d="M139.269 34.8559C139.351 34.9386 139.351 35.0212 139.434 35.1866C140.013 36.6747 140.922 37.9148 141.831 39.2375C142.079 39.5682 142.245 39.9816 142.493 40.2296C142.741 40.3949 142.906 40.3949 143.072 40.6429C143.485 41.139 143.981 41.5523 144.477 41.9657C145.304 42.6271 145.965 43.8671 146.626 44.7765C147.453 45.9339 148.776 46.678 149.52 47.9181C150.264 49.2408 150.595 50.7289 151.504 51.969L152.165 52.7957C152.662 53.5398 152.496 54.2011 152.744 55.1932C152.331 55.7719 151.587 56.516 151.504 57.26C151.504 57.508 151.504 57.8387 151.587 58.0041C151.752 58.6654 151.835 59.3268 152.083 59.9882C152.579 61.1456 152.992 62.3857 153.736 63.4604C154.315 64.3698 155.059 65.0312 155.803 65.8579C157.208 67.4287 158.614 68.8341 159.027 70.9836C159.275 72.141 159.441 73.3811 159.689 74.5385C159.854 75.1998 160.102 75.9439 160.102 76.6879C160.102 77.184 160.019 77.7627 159.937 78.2587C159.937 78.9201 160.267 79.4161 160.433 80.0775C160.598 80.8215 160.515 81.4002 160.267 82.1443C159.937 83.1364 159.11 83.6324 158.779 84.4591C158.531 84.9551 158.697 85.5338 158.697 86.0299C158.945 88.51 157.539 90.3288 157.043 92.7263C156.712 94.4624 157.374 96.1159 157.126 97.852C156.96 99.5881 156.464 101.324 156.051 102.978C155.72 104.135 155.886 104.796 156.134 105.871C156.382 106.946 156.464 108.269 156.216 109.343C155.968 110.501 155.638 111.576 155.555 112.733C155.472 113.642 155.638 114.552 155.472 115.461C155.307 116.288 154.811 117.032 154.563 117.776C153.902 119.512 152.827 121 152.083 122.654C151.504 124.059 151.339 125.878 150.099 126.87C149.685 127.201 149.355 127.366 148.859 127.531C148.115 127.779 147.619 128.441 146.957 128.854C146.544 129.102 146.213 129.185 145.8 129.35C145.304 129.515 144.808 129.929 144.229 130.011C143.32 130.177 142.41 129.846 141.501 129.929C140.426 130.011 139.682 130.59 139.103 131.417C138.525 132.244 137.863 133.153 137.367 134.062C136.54 135.385 136.21 137.204 135.135 138.444C134.722 138.857 134.143 139.023 133.647 139.271C132.986 139.519 132.324 139.932 131.745 140.263C131.084 140.593 130.588 141.172 130.175 141.668C129.844 142.081 129.761 142.495 129.513 142.991C129.431 143.239 129.431 143.487 129.431 143.735C129.265 144.148 128.935 144.396 128.769 144.81C128.521 145.14 128.025 145.967 128.108 146.463C128.273 147.373 129.844 146.628 129.761 147.373C129.679 147.869 128.769 148.199 128.439 148.53C127.943 148.943 127.529 149.605 127.199 150.101C126.537 151.175 126.62 151.754 125.38 152.25C124.388 152.664 123.478 152.829 122.404 152.912C121.163 152.994 120.419 153.821 119.262 154.317C118.683 154.565 118.187 155.061 117.691 155.392C117.195 155.722 116.617 155.805 116.038 156.053C115.624 156.218 115.046 156.549 114.798 156.962C114.632 157.21 114.715 157.624 114.632 157.955C114.467 158.533 114.136 158.864 113.723 159.36C113.144 160.104 112.648 160.517 111.904 161.096C119.51 158.781 126.868 155.144 133.647 150.266C164.732 127.697 173.164 85.4512 154.067 52.9611C153.158 51.3076 152.083 49.7369 151.008 48.2488C150.76 47.8354 150.429 47.422 150.099 47.0087C146.957 42.3791 143.32 38.3281 139.269 34.8559Z" fill="white" fill-opacity="0.09"/>
<path opacity="0.2" fill-rule="evenodd" clip-rule="evenodd" d="M84.3751 122.488C84.7884 122.902 85.2018 123.232 85.6978 123.48C86.6899 123.894 87.7646 123.728 88.7567 123.563C89.6661 123.398 90.5755 123.232 91.4848 123.067C92.0635 122.984 92.6423 122.819 93.0556 122.406C93.7997 121.744 93.6343 120.504 93.1383 119.677C92.2289 118.189 90.4101 117.611 88.674 117.197C86.9379 116.784 83.7963 116.536 82.2256 117.693C79.9934 119.347 83.0523 121.331 84.3751 122.488Z" fill="white" fill-opacity="0.11"/>
<path opacity="0.2" fill-rule="evenodd" clip-rule="evenodd" d="M89.2525 112.485C88.0124 112.568 86.7723 112.32 85.6149 112.154C82.8867 111.658 80.0759 111.162 77.3477 110.666C76.521 110.501 75.6942 110.335 75.1155 109.757C74.3715 108.93 74.5368 107.607 74.7022 106.45C74.7848 105.788 74.7848 105.127 74.5368 104.631C74.2888 104.052 73.5448 103.639 72.9661 103.97C72.3874 104.3 72.3047 105.044 72.3047 105.706C72.3874 107.69 72.8007 109.591 73.6274 111.41C73.9581 112.154 74.3715 112.816 74.9502 113.312C76.2729 114.221 78.0091 113.725 79.5798 113.394C83.3827 112.733 87.103 113.89 90.8232 114.552C91.9806 114.717 93.6341 115.213 92.9727 113.56C92.394 111.989 90.4099 112.402 89.2525 112.485Z" fill="white" fill-opacity="0.11"/>
<path opacity="0.2" fill-rule="evenodd" clip-rule="evenodd" d="M60.4822 45.9339C61.2263 44.6112 61.9703 43.2884 62.7144 41.9657C62.8797 41.635 63.1277 41.2216 63.4584 40.9736C64.0371 40.5603 64.6985 40.5603 65.3599 40.5603C68.8321 40.3122 71.9736 38.1628 75.4459 37.5841C76.1072 37.5014 76.8513 37.4187 77.3473 37.9148C76.6033 38.5761 75.8592 39.3202 75.1152 39.9816C74.6191 40.3949 74.1231 40.8909 73.6271 41.139C72.7177 41.635 71.6429 41.635 70.5682 41.7177C68.5014 41.8003 66.3519 42.131 64.8638 43.5365C63.7064 44.6112 63.1277 46.182 62.1357 47.422C60.4822 49.2408 59.2421 48.0007 60.4822 45.9339Z" fill="white" fill-opacity="0.11"/>
<path opacity="0.2" fill-rule="evenodd" clip-rule="evenodd" d="M79.0011 36.6747C78.6705 36.6747 78.4224 36.1787 78.5878 35.848C78.7531 35.3519 79.3318 35.1039 79.8279 35.3519C80.3239 35.5173 80.4892 36.1787 80.2412 36.592C79.9105 37.088 79.2492 37.0881 79.0011 36.6747Z" fill="white" fill-opacity="0.11"/>
<path opacity="0.2" fill-rule="evenodd" clip-rule="evenodd" d="M85.7801 19.8096C87.5989 20.2229 89.335 20.967 90.9885 21.8764C93.7166 23.2818 96.3621 24.9352 98.8423 26.754C99.0076 26.8367 99.0903 27.002 99.0903 27.1674C99.0903 27.3327 99.0076 27.4154 98.925 27.4981C97.8502 28.6555 96.0314 28.2421 94.5433 27.5807C93.1379 27.002 91.7325 26.3407 90.3271 25.5966C88.4256 24.5219 86.3588 23.2818 84.2093 23.4471C83.3826 23.5298 82.5559 23.7778 81.6465 23.8605C79.9104 24.0258 77.7609 22.5377 79.249 20.8016C80.6545 19.2309 84.1267 19.3962 85.7801 19.8096Z" fill="white" fill-opacity="0.11"/>
<path opacity="0.2" fill-rule="evenodd" clip-rule="evenodd" d="M101.9 25.2659C102.314 25.1833 102.644 25.2659 103.058 25.3486C104.298 25.5966 105.538 25.8446 106.778 26.0927C107.108 26.1753 107.522 26.3407 107.522 26.6714C107.522 26.8367 107.439 27.002 107.274 27.0847C106.695 27.8288 106.034 28.4901 105.207 28.9862C104.38 29.4822 103.388 29.7302 102.562 29.4822C100.825 28.9862 99.2546 25.6793 101.9 25.2659Z" fill="white" fill-opacity="0.11"/>
<path opacity="0.2" fill-rule="evenodd" clip-rule="evenodd" d="M100.081 114.717C101.9 113.973 103.719 113.229 105.62 112.485C106.199 112.237 106.778 111.989 107.439 112.072C108.101 112.072 108.762 112.485 109.423 112.65C110.415 112.981 111.573 112.816 112.648 112.981C115.128 113.312 117.608 115.048 119.84 113.89C120.253 113.642 120.667 113.312 121.163 113.229C121.659 113.146 122.238 113.394 122.238 113.89C122.238 114.138 122.072 114.304 121.99 114.552C120.419 116.784 117.773 118.272 115.045 118.437C114.053 118.52 112.978 118.355 112.234 117.693C111.821 117.28 111.49 116.784 111.16 116.371C110.167 115.296 108.597 115.048 107.191 115.296C105.786 115.461 104.463 116.123 103.14 116.536C102.148 116.867 98.3454 118.437 97.436 117.611C95.9479 116.371 99.3374 114.965 100.081 114.717Z" fill="white" fill-opacity="0.11"/>
<path opacity="0.2" fill-rule="evenodd" clip-rule="evenodd" d="M105.126 118.768C105.705 118.437 106.449 118.437 107.11 118.768C107.689 119.099 108.102 119.843 107.937 120.504C107.689 121.331 106.697 121.744 105.87 121.992C105.374 122.158 104.878 122.24 104.382 122.406C104.051 122.488 103.721 122.571 103.39 122.571C103.059 122.571 102.728 122.488 102.48 122.488C101.736 122.406 100.992 122.571 100.248 122.902C100.083 122.984 99.8349 123.067 99.6696 123.067C99.4216 123.067 99.1736 122.984 99.0082 122.819C98.3468 122.406 97.6855 121.992 97.1068 121.414C97.0241 121.331 96.9414 121.248 96.9414 121.083C96.9414 120.918 97.1068 120.835 97.2721 120.752C98.7602 120.091 100.331 120.587 101.819 120.504C103.721 120.587 103.472 119.595 105.126 118.768Z" fill="white" fill-opacity="0.11"/>
<defs>
<radialGradient id="paint0_radial_57_59" cx="0" cy="0" r="1" gradientUnits="userSpaceOnUse" gradientTransform="translate(82.814 75.4312) rotate(-125.952) scale(79.6808)">
<stop stop-color="#454261"/>
<stop offset="0.635" stop-color="#353251"/>
<stop offset="0.915" stop-color="#2B2943"/>
<stop offset="0.9865" stop-color="#292644"/>
</radialGradient>
<linearGradient id="paint1_linear_57_59" x1="125.695" y1="116.753" x2="127.963" y2="115.108" gradientUnits="userSpaceOnUse">
<stop stop-color="#E8DDFF"/>
<stop offset="1" stop-color="#AA8AD8"/>
</linearGradient>
</defs>
</svg>
