<svg width="1131" height="601" viewBox="0 0 1131 601" fill="none" xmlns="http://www.w3.org/2000/svg">
<path d="M104.227 331.67C104.227 334.404 102.012 336.62 99.2793 336.62C96.5466 336.62 94.3312 334.404 94.3312 331.67C94.3312 328.936 96.5466 326.72 99.2793 326.72C102.012 326.72 104.227 328.936 104.227 331.67Z" fill="white" fill-opacity="0.2"/>
<path d="M866.23 36.4522C866.23 37.6949 865.223 38.7023 863.981 38.7023C862.739 38.7023 861.732 37.6949 861.732 36.4522C861.732 35.2095 862.739 34.2021 863.981 34.2021C865.223 34.2021 866.23 35.2095 866.23 36.4522Z" fill="white" fill-opacity="0.2"/>
<path d="M151.009 220.963C151.009 222.206 150.002 223.214 148.76 223.214C147.518 223.214 146.511 222.206 146.511 220.963C146.511 219.721 147.518 218.713 148.76 218.713C150.002 218.713 151.009 219.721 151.009 220.963Z" fill="white" fill-opacity="0.2"/>
<path d="M1110.04 374.873C1110.04 376.115 1109.03 377.123 1107.79 377.123C1106.54 377.123 1105.54 376.115 1105.54 374.873C1105.54 373.63 1106.54 372.623 1107.79 372.623C1109.03 372.623 1110.04 373.63 1110.04 374.873Z" fill="white" fill-opacity="0.2"/>
<path d="M358.828 85.0552C358.828 86.2979 357.821 87.3053 356.579 87.3053C355.337 87.3053 354.33 86.2979 354.33 85.0552C354.33 83.8124 355.337 82.805 356.579 82.805C357.821 82.805 358.828 83.8124 358.828 85.0552Z" fill="white" fill-opacity="0.2"/>
<path d="M1111.83 21.1513C1111.83 22.394 1110.83 23.4014 1109.59 23.4014C1108.34 23.4014 1107.34 22.394 1107.34 21.1513C1107.34 19.9086 1108.34 18.9011 1109.59 18.9011C1110.83 18.9011 1111.83 19.9086 1111.83 21.1513Z" fill="white" fill-opacity="0.2"/>
<path d="M1096.54 149.859C1096.54 151.102 1095.53 152.109 1094.29 152.109C1093.05 152.109 1092.04 151.102 1092.04 149.859C1092.04 148.616 1093.05 147.609 1094.29 147.609C1095.53 147.609 1096.54 148.616 1096.54 149.859Z" fill="white" fill-opacity="0.2"/>
<path d="M729.484 111.157C729.484 112.399 728.477 113.407 727.235 113.407C725.992 113.407 724.985 112.399 724.985 111.157C724.985 109.914 725.992 108.907 727.235 108.907C728.477 108.907 729.484 109.914 729.484 111.157Z" fill="white" fill-opacity="0.2"/>
<path d="M20.56 2.25014C20.56 3.49285 19.553 4.50027 18.3109 4.50027C17.0687 4.50027 16.0617 3.49285 16.0617 2.25014C16.0617 1.00742 17.0687 0 18.3109 0C19.553 0 20.56 1.00742 20.56 2.25014Z" fill="white" fill-opacity="0.2"/>
<path d="M31.5654 330.348C30.3412 330.137 29.5191 328.974 29.7292 327.749C29.9394 326.525 31.1022 325.702 32.3264 325.912C33.5507 326.123 34.3728 327.286 34.1626 328.511C33.9525 329.735 32.7897 330.558 31.5654 330.348Z" fill="white" fill-opacity="0.27"/>
<path d="M34.1204 230.333C32.8961 230.122 32.074 228.959 32.2842 227.734C32.4943 226.509 33.6571 225.687 34.8814 225.897C36.1056 226.107 36.9277 227.271 36.7176 228.496C36.5074 229.72 35.3446 230.543 34.1204 230.333Z" fill="white" fill-opacity="0.27"/>
<path d="M63.1815 215.232C61.9573 215.022 61.1352 213.859 61.3453 212.634C61.5554 211.409 62.7182 210.587 63.9425 210.797C65.1667 211.007 65.9889 212.171 65.7787 213.395C65.5686 214.62 64.4058 215.443 63.1815 215.232Z" fill="white" fill-opacity="0.27"/>
<path d="M30.7186 260.798C29.4943 260.587 28.6722 259.424 28.8824 258.199C29.0925 256.975 30.2553 256.152 31.4796 256.362C32.7038 256.573 33.5259 257.736 33.3158 258.961C33.1056 260.185 31.9428 261.008 30.7186 260.798Z" fill="white" fill-opacity="0.27"/>
<path d="M59.6233 156.175C58.3991 155.965 57.577 154.802 57.7871 153.577C57.9973 152.352 59.1601 151.53 60.3843 151.74C61.6086 151.95 62.4307 153.113 62.2205 154.338C62.0104 155.563 60.8476 156.385 59.6233 156.175Z" fill="white" fill-opacity="0.27"/>
<path d="M97.2206 149.847C95.9963 149.636 95.1742 148.473 95.3844 147.248C95.5945 146.023 96.7573 145.201 97.9816 145.411C99.2058 145.621 100.028 146.785 99.8178 148.01C99.6077 149.234 98.4448 150.057 97.2206 149.847Z" fill="white" fill-opacity="0.27"/>
<path d="M1077.05 141.685C1077.74 141.113 1077.83 140.097 1077.25 139.415C1076.68 138.732 1075.67 138.643 1074.99 139.214C1074.3 139.786 1074.21 140.802 1074.79 141.485C1075.36 142.167 1076.37 142.257 1077.05 141.685Z" fill="white" fill-opacity="0.27"/>
<path d="M1039.43 80.7064C1040.12 80.1348 1040.21 79.1182 1039.63 78.436C1039.06 77.7538 1038.05 77.6641 1037.36 78.2358C1036.68 78.8074 1036.59 79.8239 1037.16 80.5062C1037.74 81.1884 1038.75 81.2781 1039.43 80.7064Z" fill="white" fill-opacity="0.27"/>
<path d="M1016.01 81.8425C1016.69 81.2708 1016.78 80.2543 1016.21 79.5721C1015.63 78.8898 1014.62 78.8002 1013.94 79.3719C1013.25 79.9435 1013.17 80.96 1013.74 81.6423C1014.31 82.3245 1015.32 82.4142 1016.01 81.8425Z" fill="white" fill-opacity="0.27"/>
<path d="M1052.52 98.3345C1053.2 97.7628 1053.29 96.7463 1052.72 96.0641C1052.15 95.3818 1051.13 95.2922 1050.45 95.8638C1049.77 96.4355 1049.68 97.452 1050.25 98.1342C1050.82 98.8165 1051.84 98.9061 1052.52 98.3345Z" fill="white" fill-opacity="0.27"/>
<path d="M996.929 44.0077C997.611 43.4361 997.7 42.4196 997.129 41.7373C996.558 41.0551 995.541 40.9654 994.859 41.5371C994.178 42.1088 994.088 43.1253 994.659 43.8075C995.231 44.4898 996.247 44.5794 996.929 44.0077Z" fill="white" fill-opacity="0.27"/>
<path d="M971.378 53.6512C972.06 53.0796 972.15 52.0631 971.579 51.3808C971.007 50.6986 969.991 50.6089 969.309 51.1806C968.627 51.7523 968.538 52.7688 969.109 53.451C969.68 54.1333 970.696 54.2229 971.378 53.6512Z" fill="white" fill-opacity="0.27"/>
<path d="M4.49825 444.841C4.49825 446.083 3.49128 447.091 2.24912 447.091C1.00697 447.091 0 446.083 0 444.841C0 443.598 1.00697 442.59 2.24912 442.59C3.49128 442.59 4.49825 443.598 4.49825 444.841Z" fill="white" fill-opacity="0.2"/>
<path d="M1128.37 438.118C1127.15 437.908 1126.32 436.744 1126.53 435.52C1126.74 434.295 1127.91 433.472 1129.13 433.682C1130.36 433.893 1131.18 435.056 1130.97 436.281C1130.76 437.506 1129.59 438.328 1128.37 438.118Z" fill="white" fill-opacity="0.27"/>
<path d="M831.276 591.549C831.276 594.283 829.061 596.5 826.328 596.5C823.595 596.5 821.38 594.283 821.38 591.549C821.38 588.815 823.595 586.599 826.328 586.599C829.061 586.599 831.276 588.815 831.276 591.549Z" fill="white" fill-opacity="0.2"/>
<path d="M36.8856 525.845C36.8856 528.579 34.6703 530.796 31.9376 530.796C29.2048 530.796 26.9895 528.579 26.9895 525.845C26.9895 523.112 29.2048 520.895 31.9376 520.895C34.6703 520.895 36.8856 523.112 36.8856 525.845Z" fill="white" fill-opacity="0.2"/>
<path d="M1030.1 580.749C1030.1 581.991 1029.09 582.999 1027.85 582.999C1026.61 582.999 1025.6 581.991 1025.6 580.749C1025.6 579.506 1026.61 578.499 1027.85 578.499C1029.09 578.499 1030.1 579.506 1030.1 580.749Z" fill="white" fill-opacity="0.2"/>
<path d="M599.166 562.748C599.166 563.99 598.16 564.998 596.917 564.998C595.675 564.998 594.668 563.99 594.668 562.748C594.668 561.505 595.675 560.498 596.917 560.498C598.16 560.498 599.166 561.505 599.166 562.748Z" fill="white" fill-opacity="0.2"/>
<path d="M462.42 584.349C462.42 585.592 461.413 586.599 460.171 586.599C458.928 586.599 457.922 585.592 457.922 584.349C457.922 583.106 458.928 582.099 460.171 582.099C461.413 582.099 462.42 583.106 462.42 584.349Z" fill="white" fill-opacity="0.27"/>
<path d="M363.458 598.75C363.458 599.993 362.451 601 361.209 601C359.967 601 358.96 599.993 358.96 598.75C358.96 597.507 359.967 596.5 361.209 596.5C362.451 596.5 363.458 597.507 363.458 598.75Z" fill="white" fill-opacity="0.27"/>
<path d="M343.666 572.648C343.666 573.891 342.659 574.898 341.417 574.898C340.175 574.898 339.168 573.891 339.168 572.648C339.168 571.406 340.175 570.398 341.417 570.398C342.659 570.398 343.666 571.406 343.666 572.648Z" fill="white" fill-opacity="0.27"/>
<path d="M394.046 596.95C394.046 598.193 393.039 599.2 391.797 599.2C390.555 599.2 389.548 598.193 389.548 596.95C389.548 595.707 390.555 594.7 391.797 594.7C393.039 594.7 394.046 595.707 394.046 596.95Z" fill="white" fill-opacity="0.27"/>
<path d="M286.088 586.149C286.088 587.392 285.082 588.399 283.839 588.399C282.597 588.399 281.59 587.392 281.59 586.149C281.59 584.906 282.597 583.899 283.839 583.899C285.082 583.899 286.088 584.906 286.088 586.149Z" fill="white" fill-opacity="0.27"/>
<path d="M273.493 550.147C273.493 551.39 272.486 552.397 271.244 552.397C270.002 552.397 268.995 551.39 268.995 550.147C268.995 548.904 270.002 547.897 271.244 547.897C272.486 547.897 273.493 548.904 273.493 550.147Z" fill="white" fill-opacity="0.27"/>
</svg>
