<svg width="1200" height="638" viewBox="0 0 1200 638" fill="none" xmlns="http://www.w3.org/2000/svg">
<path fill-rule="evenodd" clip-rule="evenodd" d="M1200 548.388V555.217C1113.91 561.32 1016.8 572.1 884.558 595.894C721.672 625.203 581.684 614.587 454.558 604.947C397.841 600.646 343.683 596.539 291.195 596.258C164.009 595.442 49.6375 623.396 0 637.561V608.673C131.936 559.322 308.224 574.834 478.002 589.774C591.753 599.783 702.581 609.535 795.191 599.35C919.079 585.726 1077.73 564.966 1200 548.388ZM1200 437.061V495.664C1146.04 498.477 1083.38 498.179 1011.19 492.934C941.426 487.902 870.015 479.013 798.13 470.065L798.13 470.065C515.559 434.893 225.683 398.812 0 592.497V547.933C45.6325 519.293 166.288 454.502 346.838 437.088C451.831 427.043 585.168 433.35 723.535 439.894C888.352 447.69 1060.31 455.823 1200 437.061ZM1200 217.964V334.166C1140.67 338.93 1075.32 349.853 1011.02 371.601C807.162 440.726 753.036 446.001 461.329 395.249C212.421 351.943 44.0486 488.63 0 529.672V405.706C45.5566 374.007 140.313 321.285 276.019 312.48C387.921 305.117 476.912 328.324 559.929 349.973C622.52 366.296 681.715 381.733 744.774 382.515C829.241 383.563 897.328 345.952 968.574 306.596C1021.06 277.601 1075.27 247.659 1139 231.531C1160.2 226.166 1180.6 221.692 1200 217.964ZM1200 99.7924V180.365C1168.97 188.249 1136.65 199.473 1104.1 215.159C1066.87 233.097 1032.58 250.775 1000.46 267.338C882.735 328.04 794.073 373.756 696.044 362.323C648.081 356.729 591.723 338.234 530.052 317.996C431.284 285.583 318.89 248.698 205.537 253.178C96.8786 257.472 33.6101 299.775 0 333.732V269.369C32.154 254.782 82.2586 239.718 158.156 233.168C237.39 226.415 345.999 250.751 456.727 275.563L456.728 275.563C581.64 303.552 709.247 332.145 800.418 317.392C904.95 300.476 989.613 240.284 1070.23 182.969L1070.23 182.968C1113.84 151.967 1156.26 121.808 1200 99.7924ZM1200 0V63.6145C1118.02 102.782 1018.23 147.208 884.726 174.957C722.238 208.731 581.843 201.995 454.346 195.878L454.346 195.878L454.343 195.878C397.804 193.166 343.801 190.575 291.532 191.693C163.062 194.44 48.4369 226.126 0 241.48V212.524C133.031 158.133 319.415 165.222 496.904 171.972C611.322 176.324 722.043 180.535 812.389 168.044C992.955 143.081 1141.45 44.053 1200 0Z" fill="white" fill-opacity="0.02"/>
</svg>
